<?xml version="1.0" standalone="no"?>
<!DOCTYPE svg PUBLIC "-//W3C//DTD SVG 20010904//EN"
 "http://www.w3.org/TR/2001/REC-SVG-20010904/DTD/svg10.dtd">
<svg version="1.0" xmlns="http://www.w3.org/2000/svg"
 width="1986.000000pt" height="1986.000000pt" viewBox="0 0 1986.000000 1986.000000"
 preserveAspectRatio="xMidYMid meet">
<metadata>
Created by potrace 1.14, written by Peter Selinger 2001-2017
</metadata>
<g transform="translate(0.000000,1986.000000) scale(0.100000,-0.100000)"
fill="#000000" stroke="none">
<path d="M9908 18492 c-10 -20 -22 -44 -27 -52 -17 -26 -137 -226 -144 -241
-4 -8 -15 -27 -26 -44 -24 -40 -224 -381 -248 -425 -22 -39 -289 -506 -335
-585 -57 -98 -88 -172 -90 -211 -1 -46 26 -137 48 -154 7 -7 14 -17 14 -22 0
-5 45 -86 100 -180 55 -94 100 -175 100 -179 0 -5 5 -9 10 -9 6 0 10 -4 10
-10 0 -8 271 -481 455 -795 29 -49 115 -198 191 -330 282 -490 313 -545 439
-760 70 -121 139 -240 153 -265 14 -25 73 -129 133 -231 167 -289 742 -1286
841 -1459 48 -85 92 -162 97 -170 6 -8 50 -85 99 -170 50 -85 130 -225 180
-310 222 -384 287 -497 306 -532 12 -20 70 -121 130 -225 60 -103 118 -205
129 -226 12 -21 33 -52 47 -69 38 -45 64 -35 138 59 54 68 306 391 361 463 26
34 239 309 309 399 31 40 65 82 75 92 9 11 17 23 17 28 0 5 3 11 8 13 14 6
125 150 150 195 40 72 27 126 -68 283 -19 31 -144 247 -165 285 -13 22 -57 98
-99 169 -42 70 -76 129 -76 131 0 2 -26 47 -58 102 -32 54 -61 105 -65 113 -4
8 -17 31 -28 50 -12 19 -73 125 -137 235 -64 110 -155 268 -204 352 -48 83
-97 168 -108 188 -20 36 -118 205 -220 380 -29 50 -62 108 -75 130 -12 22 -73
128 -135 235 -62 107 -124 215 -138 240 -13 25 -28 50 -32 55 -4 6 -19 30 -32
55 -14 25 -64 112 -112 194 -47 82 -86 151 -86 152 0 2 -16 28 -35 58 -19 30
-35 60 -35 66 0 5 -4 10 -10 10 -5 0 -10 5 -10 11 0 6 -23 49 -52 97 -28 48
-64 111 -81 140 -16 30 -55 97 -86 150 -31 54 -60 104 -64 112 -4 8 -21 38
-37 65 -17 28 -33 57 -37 65 -3 8 -12 22 -18 30 -7 8 -25 38 -40 65 -14 28
-36 66 -47 85 -118 203 -240 414 -261 452 -26 46 -158 275 -262 453 -78 134
-314 543 -343 595 -14 25 -43 73 -64 108 -21 34 -38 64 -38 67 0 2 -51 91
-112 197 -62 106 -122 210 -133 231 -25 47 -45 47 -67 -1z"/>
<path d="M16121 15414 c-15 -11 -178 -260 -226 -346 -12 -21 -228 -361 -332
-522 -39 -61 -106 -165 -149 -231 -90 -139 -524 -792 -605 -910 -31 -44 -91
-132 -134 -195 -44 -63 -133 -191 -199 -285 -66 -93 -136 -193 -155 -221 -74
-106 -522 -722 -551 -757 -6 -7 -68 -88 -138 -182 -199 -266 -721 -937 -742
-955 -3 -3 -24 -27 -45 -55 -22 -27 -73 -90 -114 -140 -41 -49 -90 -110 -110
-134 -63 -77 -145 -176 -151 -181 -3 -3 -33 -39 -67 -80 -34 -41 -73 -88 -88
-105 -14 -16 -45 -52 -68 -79 -91 -108 -254 -295 -321 -371 -138 -154 -260
-290 -275 -306 -9 -9 -61 -65 -116 -125 -55 -60 -138 -149 -185 -199 -135
-144 -804 -810 -929 -925 -62 -58 -130 -121 -151 -140 -71 -66 -205 -187 -300
-270 -52 -46 -97 -86 -100 -89 -3 -4 -50 -44 -105 -91 -55 -47 -102 -87 -105
-90 -3 -4 -68 -58 -145 -121 -919 -754 -1852 -1331 -2610 -1613 -55 -21 -116
-44 -135 -52 -29 -12 -269 -87 -320 -99 -8 -2 -69 -18 -135 -35 -66 -17 -178
-41 -250 -55 -115 -21 -153 -27 -255 -41 -170 -22 -541 -22 -670 0 -14 3 -43
7 -65 11 -292 42 -611 152 -811 280 -30 19 -57 35 -60 35 -2 0 -10 5 -17 10
-7 6 -52 40 -102 77 -110 81 -310 280 -391 388 -198 263 -346 543 -453 858
-44 128 -103 332 -114 392 -2 11 -7 31 -10 45 -10 40 -45 231 -52 280 -3 25
-8 52 -10 60 -2 8 -6 40 -10 71 -3 31 -7 66 -10 77 -2 11 -6 56 -10 99 -3 43
-8 92 -10 108 -5 36 -15 178 -21 295 -5 97 -5 592 0 660 2 25 7 104 11 175 11
177 11 180 19 265 12 130 16 174 21 210 2 19 7 58 10 85 3 28 8 66 10 85 2 19
7 58 10 85 3 28 8 61 10 75 2 14 7 45 10 70 8 56 14 98 20 130 2 14 7 43 10
65 3 23 7 50 9 60 2 11 7 40 11 65 4 25 9 54 11 65 2 11 15 81 29 155 45 234
78 388 135 630 24 99 22 90 50 200 12 47 23 92 25 100 4 18 170 619 185 669 7
26 7 37 -2 42 -7 5 -14 7 -15 5 -9 -9 -270 -536 -320 -646 -350 -774 -597
-1474 -761 -2165 -51 -210 -105 -483 -127 -629 -3 -21 -7 -41 -9 -45 -2 -3 -7
-35 -11 -71 -4 -36 -9 -67 -10 -70 -2 -3 -6 -34 -10 -69 -4 -34 -8 -70 -10
-79 -1 -9 -6 -46 -9 -82 -4 -36 -9 -76 -11 -90 -2 -14 -7 -61 -10 -105 -3 -44
-8 -102 -10 -130 -12 -137 -18 -320 -19 -500 0 -202 10 -502 18 -527 3 -7 7
-47 10 -88 4 -41 8 -86 10 -100 3 -14 7 -45 10 -70 3 -25 8 -54 10 -65 2 -11
7 -42 10 -70 4 -27 9 -57 11 -65 2 -8 6 -26 9 -40 70 -408 264 -961 452 -1290
295 -515 680 -901 1154 -1157 197 -107 543 -234 725 -267 17 -3 41 -8 55 -11
103 -23 205 -40 305 -51 28 -3 61 -7 75 -10 174 -30 736 -23 950 12 19 3 42 6
50 6 8 0 35 4 60 8 25 5 65 11 90 15 25 3 63 10 85 15 22 5 56 12 75 15 227
39 728 187 1050 310 80 31 150 57 155 59 25 8 304 127 425 182 94 42 474 233
560 281 30 16 98 54 150 83 338 187 898 548 1235 795 103 76 465 345 484 361
9 7 111 88 226 180 171 136 482 393 531 439 6 5 38 33 70 60 32 28 65 57 74
65 9 8 34 30 55 49 22 19 80 70 130 115 49 45 116 105 150 135 33 30 87 80
120 111 33 31 96 90 139 131 357 333 936 919 1312 1328 32 36 66 72 74 81 13
14 199 217 225 246 6 6 42 46 80 89 39 43 81 90 93 104 27 29 117 132 145 165
10 12 28 32 40 46 143 158 763 905 897 1080 19 25 37 47 40 50 55 49 1128
1459 1357 1783 13 18 33 46 45 63 161 225 326 458 376 534 21 30 45 64 55 74
9 11 17 23 17 27 0 4 6 14 13 21 6 7 30 40 53 73 22 33 65 96 96 140 158 230
524 772 656 970 48 72 91 133 95 136 5 3 7 19 5 34 -3 26 -17 36 -143 99 -117
60 -250 133 -340 189 -33 21 -229 150 -240 159 -5 4 -68 51 -140 104 -119 89
-297 230 -370 295 -127 113 -231 198 -246 202 -10 3 -27 -1 -38 -9z"/>
<path d="M7786 14817 c-34 -56 -126 -217 -233 -407 -58 -102 -114 -201 -125
-220 -96 -167 -271 -468 -361 -619 -120 -201 -149 -270 -148 -348 0 -62 17
-105 75 -193 24 -36 76 -123 116 -195 75 -133 279 -486 378 -655 31 -52 57
-97 57 -100 0 -3 8 -16 17 -30 9 -14 116 -198 238 -410 274 -475 390 -674 495
-855 45 -77 93 -160 107 -185 14 -25 74 -128 133 -230 59 -102 115 -199 125
-216 10 -16 52 -90 95 -164 43 -74 86 -150 97 -169 11 -20 43 -74 71 -121 49
-84 67 -114 108 -187 12 -21 94 -164 184 -318 89 -154 173 -300 187 -325 14
-25 49 -85 78 -135 29 -49 65 -114 81 -143 16 -28 40 -70 54 -92 14 -22 25
-42 25 -44 0 -2 32 -59 70 -127 39 -67 70 -123 70 -125 0 -1 18 -32 40 -68 22
-36 40 -69 40 -74 0 -4 13 -23 28 -41 43 -51 30 -60 306 202 431 408 860 836
882 879 9 16 13 44 11 62 -5 38 -6 40 -271 495 -113 194 -206 356 -206 358 0
2 -13 24 -30 48 -16 24 -30 46 -30 48 0 3 -79 141 -176 308 -97 167 -186 322
-199 344 -31 55 -81 142 -150 260 -32 55 -124 215 -205 355 -81 140 -181 314
-223 387 -42 72 -85 147 -95 165 -11 18 -113 195 -227 393 -333 575 -386 667
-412 713 -13 23 -54 93 -90 155 -36 62 -77 132 -91 157 -13 25 -49 86 -77 135
-88 151 -93 159 -113 195 -15 27 -232 401 -432 745 -9 17 -66 113 -125 215
-59 102 -113 190 -119 197 -8 9 -15 5 -30 -20z"/>
<path d="M5662 11143 c-16 -24 -74 -122 -160 -273 -10 -19 -85 -147 -164 -285
-80 -137 -198 -342 -263 -455 -65 -113 -182 -315 -260 -450 -335 -580 -484
-837 -504 -870 -11 -19 -24 -41 -27 -49 -4 -7 -49 -85 -100 -173 -52 -88 -94
-162 -94 -164 0 -2 -12 -23 -26 -46 -24 -38 -112 -188 -157 -268 -10 -19 -41
-72 -68 -118 -27 -45 -49 -85 -49 -88 0 -3 -8 -17 -19 -32 -20 -29 -204 -347
-215 -372 -3 -8 -22 -40 -41 -70 -99 -156 -100 -182 -16 -390 166 -409 325
-659 566 -891 136 -131 344 -279 391 -279 45 0 63 25 286 420 11 19 72 124
135 233 63 110 122 213 132 230 28 50 161 280 172 297 7 12 191 330 318 551
178 309 175 305 210 267 16 -17 122 -195 187 -313 6 -11 73 -128 149 -260 76
-132 150 -261 164 -286 37 -64 231 -401 242 -419 14 -23 219 -379 247 -430
106 -192 126 -215 180 -214 70 0 602 253 917 436 392 228 467 279 460 315 -2
10 -4 25 -4 34 -1 8 -49 98 -107 200 -59 101 -117 202 -129 224 -13 22 -56 96
-95 165 -70 120 -128 220 -169 292 -10 18 -85 148 -166 288 -177 306 -179 310
-206 358 -12 20 -25 42 -29 47 -4 6 -20 33 -35 60 -15 28 -69 122 -120 210
-51 88 -141 243 -200 345 -59 102 -115 198 -124 215 -9 16 -18 32 -21 35 -3 3
-12 19 -21 35 -8 17 -81 143 -161 281 -80 138 -155 268 -167 290 -12 21 -46
80 -75 129 -88 151 -237 407 -264 455 -14 25 -113 196 -220 380 -108 184 -207
356 -221 383 -14 26 -29 47 -33 47 -4 0 -15 -12 -26 -27z"/>
<path d="M13893 8941 c-51 -17 -115 -75 -269 -245 -101 -113 -165 -184 -209
-230 -16 -18 -79 -86 -140 -151 -199 -214 -336 -356 -642 -665 -167 -167 -303
-310 -303 -317 0 -7 10 -15 23 -17 12 -3 504 -5 1092 -4 1016 2 1072 1 1101
-16 38 -22 39 -24 199 -311 15 -27 31 -54 35 -60 6 -9 20 -33 89 -158 9 -16
21 -36 26 -46 23 -38 111 -190 247 -426 140 -241 934 -1605 1043 -1790 52 -88
555 -960 600 -1040 13 -22 46 -80 75 -130 29 -49 64 -110 78 -135 50 -88 282
-495 291 -510 5 -8 82 -141 171 -295 88 -154 167 -291 175 -305 8 -14 47 -81
86 -150 39 -69 79 -139 89 -156 10 -17 58 -100 106 -185 48 -85 103 -174 122
-198 68 -84 5 -79 983 -80 825 -1 866 0 882 17 23 25 15 52 -36 124 -24 35
-59 90 -77 123 -18 33 -40 71 -49 85 -29 46 -41 65 -60 100 -11 20 -100 175
-198 345 -99 171 -191 330 -205 355 -14 25 -89 155 -168 290 -78 135 -151 261
-162 280 -11 19 -29 51 -40 70 -24 41 -345 596 -379 656 -53 92 -271 470 -280
484 -28 46 -206 357 -212 370 -4 8 -15 29 -26 45 -10 17 -107 185 -216 375
-109 190 -224 389 -257 443 -32 54 -58 99 -58 101 0 3 -190 336 -210 366 -5 8
-31 53 -57 99 -53 94 -82 145 -162 283 -30 51 -65 112 -78 136 -13 23 -54 93
-90 155 -36 62 -77 132 -91 157 -13 25 -50 88 -80 140 -44 77 -162 281 -382
665 -10 17 -68 118 -130 225 -62 107 -120 209 -130 226 -151 262 -255 443
-275 474 -14 22 -25 42 -25 45 0 4 -31 59 -69 123 -38 64 -78 133 -89 153 -39
70 -47 80 -81 101 -30 19 -48 21 -180 21 -408 -2 -892 -2 -1109 0 -191 2 -253
-1 -289 -12z"/>
<path d="M12114 7152 c-279 -267 -507 -474 -743 -672 -29 -25 -63 -53 -75 -64
-11 -10 -83 -70 -158 -134 -76 -63 -139 -123 -139 -131 -3 -39 6 -62 58 -151
88 -150 90 -153 111 -190 20 -37 275 -476 370 -640 31 -52 66 -115 80 -140 13
-25 27 -49 32 -55 4 -5 19 -30 32 -55 14 -25 58 -101 98 -170 40 -69 84 -145
98 -170 14 -25 35 -61 47 -80 12 -19 25 -42 29 -50 4 -8 12 -24 19 -35 43 -71
87 -147 87 -151 0 -3 15 -28 33 -57 18 -29 47 -77 64 -108 35 -64 179 -312
202 -349 9 -14 21 -34 27 -45 23 -44 63 -113 100 -175 21 -36 48 -82 59 -102
18 -33 230 -400 262 -453 7 -11 15 -26 19 -34 4 -8 36 -64 72 -125 90 -156
623 -1081 654 -1136 14 -25 40 -71 59 -103 19 -33 45 -78 58 -100 41 -74 72
-116 100 -134 24 -17 79 -18 906 -19 509 -1 889 2 903 7 32 12 26 33 -39 146
-28 48 -59 102 -69 118 -9 17 -65 113 -125 215 -178 304 -206 353 -230 395
-12 22 -71 123 -130 225 -125 214 -246 424 -273 472 -11 18 -95 164 -187 323
-92 160 -237 412 -323 560 -85 149 -195 339 -244 423 -49 84 -101 174 -115
200 -15 26 -81 142 -148 257 -67 116 -140 242 -162 280 -22 39 -118 205 -213
370 -95 165 -182 316 -192 335 -11 19 -37 64 -58 100 -21 36 -47 81 -58 100
-10 19 -61 107 -112 195 -51 88 -101 174 -110 190 -9 17 -59 102 -110 190
-100 172 -119 205 -150 261 -72 127 -313 540 -318 546 -4 4 -48 -32 -98 -80z"/>
<path d="M2425 5536 c-6 -6 -66 -108 -134 -226 -68 -118 -132 -227 -142 -242
-11 -15 -19 -30 -19 -33 0 -3 -58 -105 -129 -228 -71 -122 -137 -238 -148
-257 -11 -19 -33 -57 -50 -85 -16 -27 -32 -57 -36 -65 -5 -8 -13 -24 -20 -35
-7 -11 -32 -54 -55 -95 -24 -41 -47 -82 -52 -90 -6 -8 -116 -199 -246 -425
-401 -696 -605 -1047 -649 -1120 -23 -38 -68 -115 -99 -170 -32 -55 -61 -107
-66 -115 -10 -17 -71 -120 -152 -260 -53 -90 -71 -122 -119 -207 -12 -21 -25
-42 -29 -48 -4 -5 -19 -30 -32 -55 -14 -25 -72 -126 -130 -225 -125 -216 -124
-213 -95 -224 12 -4 424 -8 916 -9 891 0 894 0 926 21 23 15 64 77 147 221 63
111 148 257 188 326 40 69 80 139 90 156 10 16 52 90 95 164 43 74 86 150 97
169 11 20 41 72 67 116 26 44 70 118 97 165 27 46 54 94 61 105 7 11 16 27 20
35 7 14 113 198 132 230 5 8 60 103 122 210 62 107 198 341 302 520 226 388
227 390 227 432 0 45 -18 68 -104 133 -336 253 -600 568 -852 1017 -46 82 -86
158 -89 168 -9 27 -28 40 -40 26z"/>
<path d="M9240 4906 c-19 -7 -96 -49 -170 -93 -74 -44 -153 -91 -175 -103
-239 -135 -317 -177 -485 -260 -107 -54 -249 -121 -315 -150 -214 -93 -223
-98 -230 -120 -8 -26 -2 -39 226 -431 100 -173 190 -327 199 -344 9 -16 102
-176 205 -355 317 -548 511 -883 537 -930 14 -25 58 -101 98 -170 92 -158 103
-178 228 -396 78 -136 111 -185 139 -204 l37 -25 905 0 906 0 3 23 c2 12 -10
45 -27 72 -17 28 -31 52 -31 55 0 3 -128 228 -180 315 -5 8 -122 211 -260 450
-138 239 -256 442 -261 450 -5 8 -59 103 -120 210 -61 107 -114 200 -118 205
-5 6 -22 35 -38 65 -17 30 -64 114 -105 185 -42 72 -153 265 -248 430 -95 165
-231 401 -303 525 -71 124 -138 241 -149 260 -88 154 -173 298 -187 313 -26
31 -44 36 -81 23z"/>
</g>
</svg>
