<svg id="Layer_1" data-name="Layer 1" xmlns="http://www.w3.org/2000/svg" viewBox="0 0 2000 2000"><defs><style>.cls-1{fill:#74c48c;}.cls-2{fill:#2978b9;}.cls-3{fill:#fce84e;}</style></defs><path class="cls-1" d="M1001,87,1074.35,214q94.86,164.34,189.72,328.68c32.71,56.66,65.3,113.4,98.34,169.88,5.22,8.93,4.69,15.34-1.75,23.48-30,37.88-59.34,76.29-89.06,114.4-9.14,11.71-10.69,11.4-17.9-1.11q-169.58-294-339.4-587.77c-5.74-9.92-6-17.32-.24-27.37,26.83-46.75,53.3-93.71,81.23-139.83,1.44-2.38,2.57-4.94,3.84-7.42Z"/><path class="cls-2" d="M6.62,1804q62-106.61,123.87-213.21,56.4-97.45,112.43-195.14c2-3.42,4.09-6.75,6.73-11.09,3.82,7.06,7.23,13.29,10.6,19.54,22.8,42.26,51.95,79.16,91.25,107.36,7.8,5.6,6.5,11.34,2.37,18.45Q286,1646.64,218.5,1763.55c-7,12.13-14.06,24.26-20.89,36.5-3.05,5.47-7.13,7.8-13.58,7.78-56.16-.2-112.32-.12-168.48-.1-3.13,0-6.25.16-8.93-1.88Z"/><path class="cls-3" d="M364.7,701.49c-5.51,20-11.09,40.06-16.53,60.12C329.89,829,316.51,897.34,309.54,966.92c-4.77,47.58-6.66,95.19-3,142.88,5,65.53,17.94,129,52.86,186,36,58.74,88,93,157.06,102.45,48.86,6.71,95.59-1.06,141.88-14.66,80.56-23.68,151.65-66.14,219.84-113.67,59.18-41.25,113.72-88.31,166.5-137.43,98.43-91.58,186.54-192.53,269.89-297.74C1422.91,698,1521,554,1612.81,405.69c6.42-10.37,7.68-10.37,16.67-2.41,36.48,32.3,74.45,62.59,117.82,85.4,5.78,3,11.48,6.45,17.6,8.54,7.9,2.68,5.53,6.26,2.33,11-55.21,82-110.25,164-169.43,243.25C1524.25,850,1448.58,946.73,1366.29,1038,1252,1164.77,1129.92,1283.18,989.8,1381.7c-86.34,60.71-177.58,112-278.77,143.93-56.85,17.94-114.84,28.85-174.71,25.45-81.76-4.65-154-31.36-210.24-93.61-42.42-47-66.92-102.91-81.7-163.82-14.5-59.78-16.37-120.36-11.32-181.16,10.33-124.44,48.55-241.19,100.36-354,9.06-19.71,19.31-38.86,29-58.27Z"/><path class="cls-1" d="M1900.44,1807.72c-25.9,0-51.81-.46-77.69.22-10.81.28-17.08-3.63-22.38-12.89-66.77-116.51-133.45-233.08-201-349.13-44.36-76.2-89.26-152.09-132.52-228.92-3.71-6.58-7.88-8.72-15.48-8.68-68,.37-136.07.23-204.1.16-2.63,0-6.3,1.49-7.7-1.33-1.61-3.25,2.35-4.58,4.18-6.37,48-46.82,93.89-95.76,138.86-145.5,6.09-6.74,12.1-10.88,21.4-10.71,28.36.5,56.75.27,85.11.92,19,.44,38-2,57.05-.62,6.06.42,9.65,2.94,12.55,8q131.44,228.51,263,456.93,80.51,139.68,161.3,279.2c1.55,2.68,3.58,5.09,5.39,7.62s4.25,5.06,2.63,8.4-5.14,2.85-8.26,2.85q-41.19,0-82.38,0Z"/><path class="cls-2" d="M574.67,822.3c45,77.79,89.38,154.34,133.67,230.93q59,101.93,117.82,203.93c8.12,14.07,7.69,15.45-6.4,24.14-37.17,22.91-75.42,43.75-115.59,61-13.27,5.69-14.75,5.14-22.11-7.66q-50.5-87.91-101-175.81c-5.86-10.19-7.21-10.23-13-.17q-54.24,93.86-108.29,187.84c-4.22,7.37-8.24,7.85-14.86,3.72-36.94-23.06-62.56-55.7-80.56-94.78-4.68-10.17-8.56-20.7-12.95-31-2.76-6.49-2.4-12.37,1.24-18.66Q462.1,1016.45,571.42,827C572.17,825.75,573.11,824.57,574.67,822.3Z"/><path class="cls-1" d="M787,455c15.69,26.91,30.68,52.39,45.47,78q90.46,156.56,180.83,313.15,49.32,85.36,98.89,170.59c4,6.84,3.48,11.93-1.88,17.45-34.57,35.55-70.38,69.81-106.62,103.64-7.26,6.77-9-.16-11.36-4.27-15.52-27-30.64-54.21-46.22-81.17Q829.21,850.16,712.14,648c-2.34-4-4.06-8.56-6.94-12.15-10.72-13.3-9-25.08-.23-39.61,26.94-44.48,52.19-90,78.11-135.08C784,459.57,785.05,458.05,787,455Z"/><path class="cls-1" d="M1226.67,1215.92c20.74,35.89,40.86,70.64,60.91,105.43q95.45,165.56,190.87,331.12c28.19,48.83,56.66,97.49,85,146.25,4.31,7.43,3.13,9-6.7,9q-76.28-.09-152.56-.23c-3.43,0-6.92-.37-10.28.1-8.75,1.24-13.75-2.87-17.93-10.2q-43.34-75.88-87.15-151.49-90.45-156.6-181.06-313.1c-2.48-4.28-3.46-7.82.92-11.46C1148.85,1287.78,1188.68,1253.81,1226.67,1215.92Z"/><path class="cls-2" d="M1048.48,1807.72c-27.45,0-54.9-.21-82.34.13-7.51.1-12.19-2.65-15.86-9q-77.67-134.76-155.66-269.35c-3.51-6.06-3.16-9.17,3.61-11.91,43.42-17.57,84.3-40.07,124.29-64.31,11.54-7,13-6.64,19.63,4.79q97.26,168.73,194.47,337.5c.31.54.64,1.07.94,1.61,5.71,10.28,5.59,10.55-5.8,10.55Q1090.12,1807.74,1048.48,1807.72Z"/></svg>